<?xml version="1.0" encoding="utf-8" ?><!-- created by svgstack.com | Attribution is required. --><svg xmlns="http://www.w3.org/2000/svg" xmlns:xlink="http://www.w3.org/1999/xlink" width="1024" height="1024"><path fill="#F6ABF0" transform="scale(2 2)" d="M366.482 115.117C369.154 116.455 371.219 120.796 372.866 123.224C382.773 137.825 389.593 149.921 393.306 167.375C400.654 201.925 392.537 227.746 374.298 255.889L374.126 255.993C373.182 255.77 363.935 244.692 362.029 242.665C369.842 234.182 376.87 217.897 379.796 206.826C388.114 175.357 382.698 143.042 366.482 115.117Z"/><path fill="#F6ABF0" transform="scale(2 2)" d="M379.219 264.118C382.123 265.774 383.96 269.129 385.774 271.83C399.506 292.276 406.711 313.969 406.969 338.508C407.68 406.151 355.153 449.63 289.632 453.758C283.608 454.137 277.523 453.971 271.489 453.972L209.429 453.973C188.994 453.994 171.847 454.759 154.64 442.096C152.073 440.206 149.631 438.06 146.92 436.381L146.625 436.2C142.227 430.718 137.432 425.543 133.666 419.572C136.511 421.285 139.156 423.37 141.943 425.183C164.202 439.663 190.866 436.829 216.142 436.944L248.157 436.981C284.343 437.007 314.983 434.765 345.994 413.985C394.264 381.639 412.146 313.263 379.219 264.118Z"/><defs><linearGradient id="gradient_0" gradientUnits="userSpaceOnUse" x1="130.14012" y1="241.71513" x2="379.85126" y2="254.39294"><stop offset="0" stop-color="#FF7C27"/><stop offset="1" stop-color="#FF2F67"/></linearGradient></defs><path fill="url(#gradient_0)" transform="scale(2 2)" d="M161.844 77.6661C170.952 73.807 180.972 74.2451 190.651 74.2484L213.098 74.2559C272.723 74.2762 330.237 72.9211 357.638 137.589C369.939 166.617 368.013 208.759 346.288 233.43C335.232 245.986 332.886 243.424 348.13 255.766C375.946 278.286 383.049 319.972 371.503 352.627C358.093 390.554 325.013 411.145 286.802 416.54C275.034 418.202 263.18 418.213 251.318 418.213L194.293 418.205C179.569 418.228 159.873 418.285 148.249 407.17C127.494 393.878 125.716 371.078 125.742 349.255L125.74 138.407C125.742 111.782 133.296 87.0253 161.844 77.6661ZM187.25 300.216C187.253 311.593 187.621 323.097 187.25 334.459C187.212 348.614 188.654 357.671 205.242 358.09C231.034 358.742 284.923 361.42 301.844 345.096C317.231 330.251 315.487 302.772 301.135 287.895C282.151 268.216 242.884 271.96 217.161 271.955C189.406 271.95 187.41 271.383 187.25 300.216ZM187.25 163.933L187.25 202.314C186.052 228.802 206.516 223 225.339 223.024C246.884 223.052 271.559 224.154 288.524 208.395C305.223 192.883 305.29 165.114 289.76 148.774C270.716 128.736 239.137 132.244 213.841 132.245C185.714 132.247 187.572 134.626 187.25 163.933Z"/><path fill="#FF6F2F" transform="scale(2 2)" d="M159.565 224.662L160.021 224.769L160.398 225.45L161.689 225.05L162.018 225.584L161.308 226.266C162.584 227.61 164.585 230.116 163.354 232.07L162.498 233.942L162.297 233.926C159.678 230.354 158.146 228.943 159.565 224.662Z"/><path fill="#FF6F2F" transform="scale(2 2)" d="M187.25 334.459C186.836 335.147 186.909 335.995 186.877 336.775C186.05 332.283 187.353 326.139 186.475 321.264C186.066 318.992 185.287 307.517 186.309 305.307L186.536 305.479C186.601 306.24 186.675 306.999 186.66 307.764L186.648 308.235C187.203 307.107 186.508 301.926 186.85 300.134L187.25 300.216C187.253 311.593 187.621 323.097 187.25 334.459Z"/><path fill="#FF6F2F" transform="scale(2 2)" d="M148.249 407.17C127.494 393.878 125.716 371.078 125.742 349.255L125.74 138.407C125.742 111.782 133.296 87.0253 161.844 77.6661C160.941 78.8733 159.339 79.1884 158.023 79.7804C149.901 83.435 145.266 87.8132 139.136 94.2238L139.345 95.047C138.628 95.8284 137.739 96.5645 137.523 97.6145C138.225 97.3743 141.764 94.3927 142.776 94.0329C143.21 94.535 143.148 95.3246 143.502 95.6831L144.182 95.5376L144.082 95.635C146.846 94.541 152.635 91.576 155.5 93.0368C156.684 93.6407 156.469 94.9476 157.331 95.7478L157.921 95.5792C165.061 100.524 160.562 101.807 162.048 104.472C165.15 110.036 163.483 119.062 166.832 124.565C169.443 128.853 167.386 128.325 167.372 132.755C167.314 150.396 162.452 158.666 176.364 173.003C177.998 174.687 182.415 176.568 183.652 174.53C185.05 172.226 184.985 154.778 184.942 151.482L185.142 151.235C187.99 153.799 185.789 159.727 187.25 163.933L187.25 202.314C186.815 202.948 187.095 215.18 186.09 209.672C185.383 205.794 178.507 196.974 180.775 190.51C184.29 180.493 168.025 184.338 165.033 183.579C160.614 182.456 162.477 175.513 154.208 180.396C148.506 183.764 148.684 187.895 145.069 192.159C143.564 193.932 141.131 194.575 139.878 196.568C135.056 196.616 133.476 209.63 139.745 208.342L139.92 207.953C140.62 208.73 141.215 208.65 142.169 208.598C147.302 213.6 144.892 221.639 146.241 227.789C146.642 229.618 150.643 235.804 152.041 238.59C153.932 242.361 153.455 251.549 148.785 252.007L148.296 252.421C147.722 252.066 147.331 251.879 146.622 251.912L146.277 252.184C146.873 252.95 148.801 252.475 148.834 253.484C148.884 255.025 147.216 256.353 147.079 257.91L147.689 258.293C147.556 259.493 142.485 265.762 141.23 266.478C136.905 268.947 134.128 270.994 134.105 276.5C134.08 282.502 136.833 282.503 141.256 284.901C142.998 285.845 147.886 290.65 149.243 292.219L149.526 292.174L149.798 291.794C157.601 292.419 148.941 310.849 148.908 313.289C148.822 319.618 142.877 324.893 147.903 331.202C148.695 331.323 149.073 331.264 149.662 331.829C151.042 345.187 153.313 344.375 144.402 355.317C137.103 364.278 131.485 352.098 127.592 353.711C127.356 354.542 127.162 355.945 126.587 356.563L126.436 355.568C125.795 356.14 126.309 358.771 126.303 359.579C126.185 374.892 130.65 389.206 141.494 400.54C143.191 402.313 147.298 405.138 148.249 407.17Z"/><path fill="#F6ABF0" transform="scale(2 2)" d="M206.27 150.319L229.445 150.386C250.749 150.562 281.78 150.354 283.056 178.388C270.308 171.308 267.322 173.084 256.12 169.26C251.858 169.715 247.644 169.326 243.375 169.284L221.397 169.26C221.392 180.893 221.608 192.561 221.397 204.189L206.27 204.189C206.269 186.257 206.65 168.241 206.27 150.319Z"/><path fill="#F6ABF0" transform="scale(2 2)" d="M206.27 290.707C213.414 290.293 220.778 290.701 227.947 290.7C253.398 290.7 287.001 286.545 295.719 317.323C287.562 315.06 279.084 312.956 270.739 311.564C258.7 309.342 234.412 308.123 221.397 309.233C220.775 319.131 221.386 329.299 221.397 339.237L206.27 339.237C206.269 323.072 206.518 306.869 206.27 290.707Z"/></svg> 